<?xml version="1.0" encoding="iso-8859-1"?>
<!-- Generator: Adobe Illustrator 19.0.0, SVG Export Plug-In . SVG Version: 6.00 Build 0)  -->
<svg version="1.1" id="Capa_1" xmlns="http://www.w3.org/2000/svg" xmlns:xlink="http://www.w3.org/1999/xlink" x="0px" y="0px"
	 viewBox="0 0 512.004 512.004" style="enable-background:new 0 0 512.004 512.004;" xml:space="preserve">
<g transform="translate(-1 -1)">
	<g>
		<g>
			<rect x="248.024" y="198.58" width="17.961" height="17.961"/>
			<path d="M212.101,252.474h89.807v-89.807h-89.807V252.474z M230.063,198.589c0.009-9.915,8.047-17.953,17.961-17.961h17.961
				c9.915,0.009,17.952,8.047,17.961,17.961v17.961c-0.009,9.915-8.047,17.952-17.961,17.961h-17.961
				c-9.915-0.009-17.952-8.047-17.961-17.961V198.589z"/>
			<path d="M434.204,162.927c-3.817,21.024-11.998,41.006-24.014,58.68c-2.793,4.095-8.379,5.155-12.474,2.362
				c-4.095-2.793-5.155-8.379-2.362-12.474c11.962-17.566,19.596-37.719,22.281-58.806l0.018-0.126l0.036-0.808
				c0.674-5.317,0.997-10.669,0.97-16.031C418.64,66.914,366.767,9.168,298.352,1.786c-68.415-7.382-131.397,37.988-146.08,105.218
				c-0.701,3.206-3.08,5.775-6.224,6.7c-3.143,0.925-6.538,0.081-8.873-2.218c-13.417-13.292-34.261-15.501-50.166-5.317
				S64.386,136.2,70.835,153.955c0.853,2.362,0.683,4.966-0.476,7.194c-1.159,2.227-3.188,3.871-5.613,4.526
				C25.796,176.47,0.821,214.386,6.281,254.44s39.668,69.897,80.081,69.879h8.981v68.128l-33.292,33.292
				c-1.688,1.688-2.631,3.969-2.631,6.349v44.904c0.054,0.763,0.207,1.518,0.458,2.245c-7.238,3.907-10.903,12.232-8.891,20.207
				s9.187,13.561,17.414,13.561c8.226,0,15.402-5.586,17.414-13.561c2.012-7.975-1.643-16.3-8.891-20.207
				c0.251-0.727,0.404-1.482,0.449-2.245v-41.186l33.292-33.292c1.688-1.688,2.631-3.969,2.631-6.349v-71.846h26.942v71.846
				c0,4.957,4.023,8.981,8.981,8.981s8.981-4.023,8.981-8.981v-71.846h26.942v53.884c0,2.38,0.943,4.67,2.631,6.349l33.292,33.292
				v59.147c0.054,0.763,0.207,1.518,0.458,2.245c-7.238,3.907-10.903,12.232-8.891,20.207c2.012,7.975,9.187,13.561,17.414,13.561
				c8.226,0,15.402-5.586,17.414-13.561s-1.643-16.3-8.891-20.207c0.251-0.727,0.404-1.482,0.449-2.245v-62.865
				c0-2.38-0.943-4.67-2.631-6.349l-33.292-33.292v-50.166h62.784l27.023,47.292v33.534c0.054,0.763,0.207,1.518,0.458,2.245
				c-5.811,3.089-9.439,9.133-9.439,15.716s3.628,12.627,9.439,15.716c-0.251,0.727-0.404,1.482-0.458,2.245v35.923
				c0.054,0.763,0.207,1.518,0.458,2.245c-7.238,3.907-10.903,12.232-8.891,20.207s9.187,13.561,17.414,13.561
				c8.226,0,15.402-5.586,17.414-13.561s-1.643-16.3-8.891-20.207c0.251-0.727,0.404-1.482,0.449-2.245v-35.923
				c-0.054-0.763-0.207-1.518-0.449-2.245c5.802-3.098,9.43-9.133,9.43-15.716s-3.628-12.618-9.43-15.716
				c0.251-0.727,0.404-1.482,0.449-2.245v-35.923c0-1.563-0.413-3.098-1.185-4.454l-23.08-40.449h69.205v98.788
				c0,4.957,4.023,8.981,8.981,8.981c4.957,0,8.981-4.023,8.981-8.981v-98.788h26.942v62.865c0,2.38,0.943,4.67,2.631,6.349
				l33.292,33.292v50.166c0.054,0.763,0.207,1.518,0.458,2.245c-7.238,3.907-10.903,12.232-8.891,20.207
				c2.012,7.975,9.187,13.561,17.414,13.561c8.226,0,15.402-5.586,17.414-13.561s-1.643-16.3-8.891-20.207
				c0.251-0.727,0.404-1.482,0.449-2.245v-53.884c0-2.38-0.943-4.67-2.631-6.349l-33.292-33.292v-59.147h8.99
				c43.359,0,79.003-34.217,80.764-77.549S477.419,166.447,434.204,162.927z M337.832,180.628c4.957,0,8.981,4.023,8.981,8.981
				c0,4.957-4.023,8.981-8.981,8.981H319.87v17.961h17.961c4.957,0,8.981,4.023,8.981,8.981c0,4.957-4.023,8.981-8.981,8.981H319.87
				v17.961h17.961c4.957,0,8.981,4.023,8.981,8.981c0,4.957-4.023,8.981-8.981,8.981H319.87v17.961c0,4.957-4.023,8.981-8.981,8.981
				c-4.957,0-8.981-4.023-8.981-8.981v-17.961h-17.961v17.961c0,4.957-4.023,8.981-8.981,8.981s-8.981-4.023-8.981-8.981v-17.961
				h-17.961v17.961c0,4.957-4.023,8.981-8.981,8.981c-4.957,0-8.981-4.023-8.981-8.981v-17.961h-17.961v17.961
				c0,4.957-4.023,8.981-8.981,8.981c-4.957,0-8.981-4.023-8.981-8.981v-17.961h-17.961c-4.957,0-8.981-4.023-8.981-8.981
				c0-4.957,4.023-8.981,8.981-8.981h17.961v-17.961h-17.961c-4.957,0-8.981-4.023-8.981-8.981c0-4.957,4.023-8.981,8.981-8.981
				h17.961v-17.961h-17.961c-4.957,0-8.981-4.023-8.981-8.981c0-4.957,4.023-8.981,8.981-8.981h17.961v-17.961h-17.961
				c-4.957,0-8.981-4.023-8.981-8.981s4.023-8.981,8.981-8.981h17.961v-17.961c0-4.957,4.023-8.981,8.981-8.981
				c4.957,0,8.981,4.023,8.981,8.981v17.961h17.961v-17.961c0-4.957,4.023-8.981,8.981-8.981c4.957,0,8.981,4.023,8.981,8.981
				v17.961h17.961v-17.961c0-4.957,4.023-8.981,8.981-8.981s8.981,4.023,8.981,8.981v17.961h17.961v-17.961
				c0-4.957,4.023-8.981,8.981-8.981c4.957,0,8.981,4.023,8.981,8.981v17.961h17.961c4.957,0,8.981,4.023,8.981,8.981
				s-4.023,8.981-8.981,8.981H319.87v17.961H337.832z"/>
			<path d="M149.236,423.107c-2.38,0-4.67,0.943-6.349,2.631c-1.688,1.688-2.631,3.969-2.631,6.349v35.923
				c0,4.957,4.023,8.981,8.981,8.981c4.957,0,8.981-4.023,8.981-8.981v-35.923c0-2.38-0.943-4.67-2.631-6.349
				C153.897,424.05,151.616,423.107,149.236,423.107z"/>
			<path d="M364.774,450.049c-2.38,0-4.67,0.943-6.349,2.631c-1.688,1.688-2.631,3.969-2.631,6.349v8.981
				c0,4.957,4.023,8.981,8.981,8.981c4.957,0,8.981-4.023,8.981-8.981v-8.981c0-2.38-0.943-4.67-2.631-6.349
				C369.435,450.992,367.154,450.049,364.774,450.049z"/>
		</g>
	</g>
</g>
<g>
</g>
<g>
</g>
<g>
</g>
<g>
</g>
<g>
</g>
<g>
</g>
<g>
</g>
<g>
</g>
<g>
</g>
<g>
</g>
<g>
</g>
<g>
</g>
<g>
</g>
<g>
</g>
<g>
</g>
</svg>
